# Blender v2.79 (sub 0) OBJ File: ''
# www.blender.org
mtllib Frame_move_button_extreme.mtl
o Cube.002_Cube.003
v -2.020220 -0.000071 1.370307
v -2.020220 0.499929 1.370307
v -2.020220 -0.000071 -1.457693
v -2.020220 0.499929 -1.457693
v -1.420220 -0.000071 1.370307
v -1.420220 0.499929 1.370307
v -1.420220 -0.000071 -1.457693
v -1.420220 0.499929 -1.457693
vn -1.0000 0.0000 0.0000
vn 0.0000 0.0000 -1.0000
vn 1.0000 0.0000 0.0000
vn 0.0000 0.0000 1.0000
vn 0.0000 -1.0000 0.0000
vn 0.0000 1.0000 0.0000
usemtl None
s off
f 2//1 3//1 1//1
f 4//2 7//2 3//2
f 8//3 5//3 7//3
f 6//4 1//4 5//4
f 7//5 1//5 3//5
f 4//6 6//6 8//6
f 2//1 4//1 3//1
f 4//2 8//2 7//2
f 8//3 6//3 5//3
f 6//4 2//4 1//4
f 7//5 5//5 1//5
f 4//6 2//6 6//6
o Cube.001_Cube.002
v -1.414214 0.500000 0.000000
v 0.000000 0.500000 -1.414214
v 0.000000 0.500000 1.414214
v -1.414214 0.000788 0.000000
v 0.000000 0.000788 -1.414214
v 0.000000 0.000788 1.414214
vn 0.0000 1.0000 0.0000
vn 0.0000 -1.0000 0.0000
vn 1.0000 0.0000 0.0000
vn -0.7071 0.0000 0.7071
vn -0.7071 0.0000 -0.7071
usemtl None
s off
f 10//7 9//7 11//7
f 13//8 14//8 12//8
f 14//9 10//9 11//9
f 12//10 11//10 9//10
f 13//11 9//11 10//11
f 14//9 13//9 10//9
f 12//10 14//10 11//10
f 13//11 12//11 9//11
