# Blender v2.79 (sub 0) OBJ File: ''
# www.blender.org
mtllib Frame_move_button.mtl
o Cube.001_Cube.002
v -1.414214 0.500000 0.000000
v 0.000000 0.500000 -1.414214
v 0.000000 0.500000 1.414214
v -1.414214 0.000788 0.000000
v 0.000000 0.000788 -1.414214
v 0.000000 0.000788 1.414214
vn 0.0000 1.0000 0.0000
vn 0.0000 -1.0000 0.0000
vn 1.0000 0.0000 0.0000
vn -0.7071 0.0000 0.7071
vn -0.7071 0.0000 -0.7071
usemtl None
s off
f 2//1 1//1 3//1
f 5//2 6//2 4//2
f 6//3 2//3 3//3
f 4//4 3//4 1//4
f 5//5 1//5 2//5
f 6//3 5//3 2//3
f 4//4 6//4 3//4
f 5//5 4//5 1//5
