# Blender v2.79 (sub 0) OBJ File: ''
# www.blender.org
mtllib Shelf.mtl
o Cube
v 0.500000 -2.000000 -2.000000
v 0.500000 -2.000000 2.000000
v -0.500000 -2.000000 2.000000
v -0.500000 -2.000000 -2.000001
v 0.500000 2.000000 -1.999999
v 0.500000 2.000000 2.000001
v -0.500000 2.000000 1.999999
v -0.500000 2.000000 -2.000000
v -0.500000 -1.890000 1.890000
v 0.500000 -1.890000 1.890000
v -0.500000 -1.890000 -1.890000
v 0.500000 -1.890000 -1.890000
v 0.500000 1.890000 1.890000
v -0.500000 1.890000 1.890000
v -0.500000 1.890000 -1.890000
v 0.500000 1.890000 -1.890000
vn 0.0000 -1.0000 0.0000
vn 0.0000 1.0000 0.0000
vn 1.0000 0.0000 0.0000
vn 0.0000 -0.0000 1.0000
vn -1.0000 0.0000 -0.0000
vn 0.0000 0.0000 -1.0000
usemtl Material
s off
f 2//1 4//1 1//1
f 8//2 6//2 5//2
f 1//3 12//3 2//3
f 6//4 3//4 2//4
f 3//5 9//5 4//5
f 1//6 8//6 5//6
f 12//4 15//4 11//4
f 13//3 5//3 6//3
f 10//2 11//2 9//2
f 13//1 15//1 16//1
f 15//5 7//5 8//5
f 9//6 13//6 10//6
f 2//1 3//1 4//1
f 8//2 7//2 6//2
f 1//3 5//3 16//3
f 12//3 10//3 2//3
f 1//3 16//3 12//3
f 6//4 7//4 3//4
f 3//5 7//5 14//5
f 9//5 11//5 4//5
f 3//5 14//5 9//5
f 1//6 4//6 8//6
f 12//4 16//4 15//4
f 6//3 2//3 10//3
f 13//3 16//3 5//3
f 6//3 10//3 13//3
f 10//2 12//2 11//2
f 13//1 14//1 15//1
f 8//5 4//5 15//5
f 4//5 11//5 15//5
f 15//5 14//5 7//5
f 9//6 14//6 13//6
