# 3ds Max Wavefront OBJ Exporter v0.97b - (c)2007 guruware
# File Created: 31.03.2019 17:11:49

mtllib water_cycle_cloud_large.mtl

#
# object Sphere001
#

v  -2.3662 15.9561 10.6572
v  -2.3662 15.2573 8.9701
v  -3.5591 15.2573 9.4643
v  -4.0532 15.2573 10.6572
v  -3.5591 15.2573 11.8501
v  -2.3662 15.2573 12.3443
v  -1.1732 15.2573 11.8501
v  -0.6791 15.2573 10.6572
v  -1.1732 15.2573 9.4643
v  -2.3662 13.5703 8.2713
v  -4.0532 13.5703 8.9701
v  -4.7521 13.5703 10.6572
v  -4.0532 13.5703 12.3443
v  -2.3662 13.5703 13.0431
v  -0.6791 13.5703 12.3443
v  0.0197 13.5703 10.6572
v  -0.6791 13.5703 8.9701
v  -2.3662 11.8832 8.9701
v  -3.5591 11.8832 9.4643
v  -4.0532 11.8832 10.6572
v  -3.5591 11.8832 11.8501
v  -2.3662 11.8832 12.3443
v  -1.1732 11.8832 11.8501
v  -0.6791 11.8832 10.6572
v  -1.1732 11.8832 9.4643
v  0.6705 15.1415 10.6572
v  0.6705 14.5825 9.3075
v  -0.2838 14.5825 9.7028
v  -0.6791 14.5825 10.6572
v  -0.2838 14.5825 11.6115
v  0.6705 14.5825 12.0068
v  1.6249 14.5825 11.6115
v  2.0202 14.5825 10.6572
v  1.6249 14.5825 9.7028
v  0.6705 13.2328 8.7485
v  -0.6791 13.2328 9.3075
v  -1.2382 13.2328 10.6572
v  -0.6791 13.2328 12.0068
v  0.6705 13.2328 12.5659
v  2.0202 13.2328 12.0068
v  2.5792 13.2328 10.6572
v  2.0202 13.2328 9.3075
v  0.6705 11.8832 9.3075
v  -0.2838 11.8832 9.7028
v  -0.2838 11.8832 11.6115
v  0.6705 11.8832 12.0068
v  1.6249 11.8832 11.6115
v  2.0202 11.8832 10.6572
v  1.6249 11.8832 9.7028
v  2.9650 14.1640 10.6572
v  2.9650 13.7727 9.7124
v  2.2969 13.7727 9.9891
v  2.0202 13.7727 10.6572
v  2.2969 13.7727 11.3252
v  2.9650 13.7727 11.6019
v  3.6330 13.7727 11.3252
v  3.9097 13.7727 10.6572
v  3.6330 13.7727 9.9891
v  2.9650 12.8279 9.3211
v  2.0202 12.8279 9.7124
v  1.6289 12.8279 10.6572
v  2.0202 12.8279 11.6019
v  2.9650 12.8279 11.9933
v  3.9097 12.8279 11.6019
v  4.3010 12.8279 10.6572
v  3.9097 12.8279 9.7124
v  2.9650 11.8832 9.7124
v  2.2969 11.8832 9.9891
v  2.2969 11.8832 11.3252
v  2.9650 11.8832 11.6019
v  3.6330 11.8832 11.3252
v  3.9097 11.8832 10.6572
v  3.6330 11.8832 9.9891
v  4.4766 13.2517 10.6572
v  4.4766 13.0169 10.0903
v  4.0757 13.0169 10.2564
v  3.9097 13.0169 10.6572
v  4.0757 13.0169 11.0580
v  4.4766 13.0169 11.2240
v  4.8774 13.0169 11.0580
v  5.0434 13.0169 10.6572
v  4.8774 13.0169 10.2564
v  4.4766 12.4500 9.8555
v  3.9097 12.4500 10.0903
v  3.6749 12.4500 10.6572
v  3.9097 12.4500 11.2240
v  4.4766 12.4500 11.4588
v  5.0434 12.4500 11.2240
v  5.2782 12.4500 10.6572
v  5.0434 12.4500 10.0903
v  4.4766 11.8832 10.0903
v  4.0757 11.8832 10.2564
v  4.0757 11.8832 11.0580
v  4.4766 11.8832 11.2240
v  4.8774 11.8832 11.0580
v  5.0434 11.8832 10.6572
v  4.8774 11.8832 10.2564
v  2.0650 13.2517 11.9382
v  2.0650 13.0169 11.3714
v  1.6642 13.0169 11.5374
v  1.4981 13.0169 11.9382
v  1.6642 13.0169 12.3390
v  2.0650 13.0169 12.5051
v  2.4658 13.0169 12.3390
v  2.6318 13.0169 11.9382
v  2.4658 13.0169 11.5374
v  2.0650 12.4500 11.1366
v  1.4981 12.4500 11.3714
v  1.2633 12.4500 11.9382
v  1.4981 12.4500 12.5051
v  2.0650 12.4500 12.7399
v  2.6318 12.4500 12.5051
v  2.8666 12.4500 11.9382
v  2.6318 12.4500 11.3714
v  2.0650 11.8832 11.3714
v  1.6642 11.8832 11.5374
v  1.4981 11.8832 11.9382
v  1.6642 11.8832 12.3390
v  2.0650 11.8832 12.5051
v  2.4658 11.8832 12.3390
v  2.6318 11.8832 11.9382
v  2.4658 11.8832 11.5374
v  -0.7753 13.2517 11.8835
v  -0.7753 13.0169 11.3167
v  -1.1761 13.0169 11.4827
v  -1.3422 13.0169 11.8835
v  -1.1761 13.0169 12.2844
v  -0.7753 13.0169 12.4504
v  -0.3745 13.0169 12.2844
v  -0.2085 13.0169 11.8835
v  -0.3745 13.0169 11.4827
v  -0.7753 12.4500 11.0819
v  -1.3422 12.4500 11.3167
v  -1.5770 12.4500 11.8835
v  -1.3422 12.4500 12.4504
v  -0.7753 12.4500 12.6852
v  -0.2085 12.4500 12.4504
v  0.0263 12.4500 11.8835
v  -0.2085 12.4500 11.3167
v  -0.7753 11.8832 11.3167
v  -1.1761 11.8832 11.4827
v  -1.3422 11.8832 11.8835
v  -1.1761 11.8832 12.2844
v  -0.7753 11.8832 12.4504
v  -0.3745 11.8832 12.2844
v  -0.2085 11.8832 11.8835
v  -0.3745 11.8832 11.4827
v  -4.7102 14.1640 10.6572
v  -4.7102 13.7727 9.7124
v  -5.3782 13.7727 9.9891
v  -5.6549 13.7727 10.6572
v  -5.3782 13.7727 11.3252
v  -4.7102 13.7727 11.6019
v  -4.0421 13.7727 11.3252
v  -3.7654 13.7727 10.6572
v  -4.0421 13.7727 9.9891
v  -4.7102 12.8279 9.3211
v  -5.6549 12.8279 9.7124
v  -6.0463 12.8279 10.6572
v  -5.6549 12.8279 11.6019
v  -4.7102 12.8279 11.9933
v  -3.7654 12.8279 11.6019
v  -3.3741 12.8279 10.6572
v  -3.7654 12.8279 9.7124
v  -4.7102 11.8832 9.7124
v  -5.3782 11.8832 9.9891
v  -5.6549 11.8832 10.6572
v  -5.3782 11.8832 11.3252
v  -4.7102 11.8832 11.6019
v  -4.0421 11.8832 11.3252
v  -3.7654 11.8832 10.6572
v  -4.0421 11.8832 9.9891
v  -4.0656 13.2517 11.5399
v  -4.0656 13.0169 10.9730
v  -4.4665 13.0169 11.1391
v  -4.6325 13.0169 11.5399
v  -4.4665 13.0169 11.9407
v  -4.0656 13.0169 12.1068
v  -3.6648 13.0169 11.9407
v  -3.4988 13.0169 11.5399
v  -3.6648 13.0169 11.1391
v  -4.0656 12.4500 10.7382
v  -4.6325 12.4500 10.9730
v  -4.8673 12.4500 11.5399
v  -4.6325 12.4500 12.1068
v  -4.0656 12.4500 12.3416
v  -3.4988 12.4500 12.1068
v  -3.2640 12.4500 11.5399
v  -3.4988 12.4500 10.9730
v  -4.0656 11.8832 10.9730
v  -4.4665 11.8832 11.1391
v  -4.6325 11.8832 11.5399
v  -4.4665 11.8832 11.9407
v  -4.0656 11.8832 12.1068
v  -3.6648 11.8832 11.9407
v  -3.4988 11.8832 11.5399
v  -3.6648 11.8832 11.1391
v  2.6962 14.8586 10.6572
v  2.6962 14.7647 10.4304
v  2.5359 14.7647 10.4969
v  2.4694 14.7647 10.6572
v  2.5359 14.7647 10.8175
v  2.6962 14.7647 10.8839
v  2.8565 14.7647 10.8175
v  2.9229 14.7647 10.6572
v  2.8565 14.7647 10.4969
v  2.6962 14.5380 10.3365
v  2.4694 14.5380 10.4304
v  2.3755 14.5380 10.6572
v  2.4694 14.5380 10.8839
v  2.6962 14.5380 10.9778
v  2.9229 14.5380 10.8839
v  3.0168 14.5380 10.6572
v  2.9229 14.5380 10.4304
v  2.6962 14.3112 10.4304
v  2.5359 14.3112 10.4969
v  2.4694 14.3112 10.6572
v  2.5359 14.3112 10.8175
v  2.6962 14.3112 10.8839
v  2.8565 14.3112 10.8175
v  2.9229 14.3112 10.6572
v  2.8565 14.3112 10.4969
v  4.7436 14.0105 10.6572
v  4.7436 13.9166 10.4304
v  4.5833 13.9166 10.4969
v  4.5169 13.9166 10.6572
v  4.5833 13.9166 10.8175
v  4.7436 13.9166 10.8839
v  4.9040 13.9166 10.8175
v  4.9704 13.9166 10.6572
v  4.9040 13.9166 10.4969
v  4.7436 13.6898 10.3365
v  4.5169 13.6898 10.4304
v  4.4230 13.6898 10.6572
v  4.5169 13.6898 10.8839
v  4.7436 13.6898 10.9778
v  4.9704 13.6898 10.8839
v  5.0643 13.6898 10.6572
v  4.9704 13.6898 10.4304
v  4.7436 13.4631 10.4304
v  4.5833 13.4631 10.4969
v  4.5169 13.4631 10.6572
v  4.5833 13.4631 10.8175
v  4.7436 13.4631 10.8839
v  4.9040 13.4631 10.8175
v  4.9704 13.4631 10.6572
v  4.9040 13.4631 10.4969
v  -5.2047 15.0106 10.6572
v  -5.2047 14.9166 10.4304
v  -5.3650 14.9166 10.4969
v  -5.4314 14.9166 10.6572
v  -5.3650 14.9166 10.8175
v  -5.2047 14.9166 10.8839
v  -5.0443 14.9166 10.8175
v  -4.9779 14.9166 10.6572
v  -5.0443 14.9166 10.4969
v  -5.2047 14.6899 10.3365
v  -5.4314 14.6899 10.4304
v  -5.5253 14.6899 10.6572
v  -5.4314 14.6899 10.8839
v  -5.2047 14.6899 10.9778
v  -4.9779 14.6899 10.8839
v  -4.8840 14.6899 10.6572
v  -4.9779 14.6899 10.4304
v  -5.2047 14.4632 10.4304
v  -5.3650 14.4632 10.4969
v  -5.4314 14.4632 10.6572
v  -5.3650 14.4632 10.8175
v  -5.2047 14.4632 10.8839
v  -5.0443 14.4632 10.8175
v  -4.9779 14.4632 10.6572
v  -5.0443 14.4632 10.4969
# 272 vertices

vn 0.0000 1.0000 0.0000
vn 0.0000 0.6630 -0.7486
vn -0.5294 0.6630 -0.5294
vn -0.7486 0.6630 -0.0000
vn -0.5294 0.6630 0.5294
vn -0.0000 0.6630 0.7486
vn 0.5294 0.6630 0.5294
vn 0.7486 0.6630 0.0000
vn 0.5294 0.6630 -0.5294
vn 0.0000 -0.0000 -1.0000
vn -0.7071 -0.0000 -0.7071
vn -1.0000 -0.0000 0.0000
vn -0.7071 -0.0000 0.7071
vn -0.0000 -0.0000 1.0000
vn 0.7071 -0.0000 0.7071
vn 1.0000 -0.0000 0.0000
vn 0.7071 -0.0000 -0.7071
vn 0.0000 -0.7706 -0.6373
vn -0.4507 -0.7706 -0.4507
vn -0.6373 -0.7706 0.0000
vn -0.4507 -0.7706 0.4507
vn -0.0000 -0.7706 0.6373
vn 0.4507 -0.7706 0.4507
vn 0.6373 -0.7706 0.0000
vn 0.4507 -0.7706 -0.4507
vn -0.0000 1.0000 -0.0000
vn -0.7486 0.6630 0.0000
vn 0.0000 0.6630 0.7486
vn 0.7486 0.6630 -0.0000
vn 0.6373 -0.7706 -0.0000
vn 0.0000 1.0000 -0.0000
vn -1.0000 0.0000 0.0000
vn -0.7071 0.0000 0.7071
vn 0.7071 0.0000 0.7071
vn 1.0000 0.0000 0.0000
vn -0.6373 -0.7706 -0.0000
vn 0.0000 -0.7706 0.6373
vn 0.0000 0.0000 -1.0000
vn -0.7071 0.0000 -0.7071
vn -0.0000 0.0000 1.0000
vn 0.7071 0.0000 -0.7071
vn 0.0000 -0.0000 1.0000
vn -0.0000 0.6630 -0.7486
vn -0.0000 -0.7706 -0.6373
# 44 vertex normals

vt 0.0000 1.0000 0.0000
vt 0.0000 0.7500 0.0000
vt 0.1250 0.7500 0.0000
vt 0.1250 1.0000 0.0000
vt 0.2500 0.7500 0.0000
vt 0.2500 1.0000 0.0000
vt 0.3750 0.7500 0.0000
vt 0.3750 1.0000 0.0000
vt 0.5000 0.7500 0.0000
vt 0.5000 1.0000 0.0000
vt 0.6250 0.7500 0.0000
vt 0.6250 1.0000 0.0000
vt 0.7500 0.7500 0.0000
vt 0.7500 1.0000 0.0000
vt 0.8750 0.7500 0.0000
vt 0.8750 1.0000 0.0000
vt 1.0000 0.7500 0.0000
vt 0.0000 0.5000 0.0000
vt 0.1250 0.5000 0.0000
vt 0.2500 0.5000 0.0000
vt 0.3750 0.5000 0.0000
vt 0.5000 0.5000 0.0000
vt 0.6250 0.5000 0.0000
vt 0.7500 0.5000 0.0000
vt 0.8750 0.5000 0.0000
vt 1.0000 0.5000 0.0000
vt 0.0000 0.2500 0.0000
vt 0.1250 0.2500 0.0000
vt 0.2500 0.2500 0.0000
vt 0.3750 0.2500 0.0000
vt 0.5000 0.2500 0.0000
vt 0.6250 0.2500 0.0000
vt 0.7500 0.2500 0.0000
vt 0.8750 0.2500 0.0000
vt 1.0000 0.2500 0.0000
# 35 texture coords

o Sphere001
g Sphere001
usemtl wire_000000000
s 1
f 1/1/1 2/2/2 3/3/3 
f 1/4/1 3/3/3 4/5/4 
f 1/6/1 4/5/4 5/7/5 
f 1/8/1 5/7/5 6/9/6 
f 1/10/1 6/9/6 7/11/7 
f 1/12/1 7/11/7 8/13/8 
f 1/14/1 8/13/8 9/15/9 
f 1/16/1 9/15/9 2/17/2 
f 2/2/2 10/18/10 11/19/11 3/3/3 
f 3/3/3 11/19/11 12/20/12 4/5/4 
f 4/5/4 12/20/12 13/21/13 5/7/5 
f 5/7/5 13/21/13 14/22/14 6/9/6 
f 6/9/6 14/22/14 15/23/15 7/11/7 
f 7/11/7 15/23/15 16/24/16 8/13/8 
f 8/13/8 16/24/16 17/25/17 9/15/9 
f 9/15/9 17/25/17 10/26/10 2/17/2 
f 10/18/10 18/27/18 19/28/19 11/19/11 
f 11/19/11 19/28/19 20/29/20 12/20/12 
f 12/20/12 20/29/20 21/30/21 13/21/13 
f 13/21/13 21/30/21 22/31/22 14/22/14 
f 14/22/14 22/31/22 23/32/23 15/23/15 
f 15/23/15 23/32/23 24/33/24 16/24/16 
f 16/24/16 24/33/24 25/34/25 17/25/17 
f 17/25/17 25/34/25 18/35/18 10/26/10 
f 18/35/18 25/34/25 24/33/24 23/32/23 22/31/22 21/30/21 20/29/20 19/28/19 
f 26/1/26 27/2/2 28/3/3 
f 26/4/26 28/3/3 29/5/27 
f 26/6/26 29/5/27 30/7/5 
f 26/8/26 30/7/5 31/9/28 
f 26/10/26 31/9/28 32/11/7 
f 26/12/26 32/11/7 33/13/29 
f 26/14/26 33/13/29 34/15/9 
f 26/16/26 34/15/9 27/17/2 
f 27/2/2 35/18/10 36/19/11 28/3/3 
f 28/3/3 36/19/11 37/20/12 29/5/27 
f 29/5/27 37/20/12 38/21/13 30/7/5 
f 30/7/5 38/21/13 39/22/14 31/9/28 
f 31/9/28 39/22/14 40/23/15 32/11/7 
f 32/11/7 40/23/15 41/24/16 33/13/29 
f 33/13/29 41/24/16 42/25/17 34/15/9 
f 34/15/9 42/25/17 35/26/10 27/17/2 
f 35/18/10 43/27/18 44/28/19 36/19/11 
f 36/19/11 44/28/19 24/29/20 37/20/12 
f 37/20/12 24/29/20 45/30/21 38/21/13 
f 38/21/13 45/30/21 46/31/22 39/22/14 
f 39/22/14 46/31/22 47/32/23 40/23/15 
f 40/23/15 47/32/23 48/33/30 41/24/16 
f 41/24/16 48/33/30 49/34/25 42/25/17 
f 42/25/17 49/34/25 43/35/18 35/26/10 
f 43/35/18 49/34/25 48/33/30 47/32/23 46/31/22 45/30/21 24/29/20 44/28/19 
f 50/1/31 51/2/2 52/3/3 
f 50/4/31 52/3/3 53/5/27 
f 50/6/31 53/5/27 54/7/5 
f 50/8/31 54/7/5 55/9/28 
f 50/10/31 55/9/28 56/11/7 
f 50/12/31 56/11/7 57/13/8 
f 50/14/31 57/13/8 58/15/9 
f 50/16/31 58/15/9 51/17/2 
f 51/2/2 59/18/10 60/19/11 52/3/3 
f 52/3/3 60/19/11 61/20/32 53/5/27 
f 53/5/27 61/20/32 62/21/33 54/7/5 
f 54/7/5 62/21/33 63/22/14 55/9/28 
f 55/9/28 63/22/14 64/23/34 56/11/7 
f 56/11/7 64/23/34 65/24/35 57/13/8 
f 57/13/8 65/24/35 66/25/17 58/15/9 
f 58/15/9 66/25/17 59/26/10 51/17/2 
f 59/18/10 67/27/18 68/28/19 60/19/11 
f 60/19/11 68/28/19 48/29/36 61/20/32 
f 61/20/32 48/29/36 69/30/21 62/21/33 
f 62/21/33 69/30/21 70/31/37 63/22/14 
f 63/22/14 70/31/37 71/32/23 64/23/34 
f 64/23/34 71/32/23 72/33/30 65/24/35 
f 65/24/35 72/33/30 73/34/25 66/25/17 
f 66/25/17 73/34/25 67/35/18 59/26/10 
f 67/35/18 73/34/25 72/33/30 71/32/23 70/31/37 69/30/21 48/29/36 68/28/19 
f 74/1/31 75/2/2 76/3/3 
f 74/4/31 76/3/3 77/5/4 
f 74/6/31 77/5/4 78/7/5 
f 74/8/31 78/7/5 79/9/28 
f 74/10/31 79/9/28 80/11/7 
f 74/12/31 80/11/7 81/13/8 
f 74/14/31 81/13/8 82/15/9 
f 74/16/31 82/15/9 75/17/2 
f 75/2/2 83/18/38 84/19/39 76/3/3 
f 76/3/3 84/19/39 85/20/12 77/5/4 
f 77/5/4 85/20/12 86/21/13 78/7/5 
f 78/7/5 86/21/13 87/22/40 79/9/28 
f 79/9/28 87/22/40 88/23/15 80/11/7 
f 80/11/7 88/23/15 89/24/16 81/13/8 
f 81/13/8 89/24/16 90/25/41 82/15/9 
f 82/15/9 90/25/41 83/26/38 75/17/2 
f 83/18/38 91/27/18 92/28/19 84/19/39 
f 84/19/39 92/28/19 72/29/36 85/20/12 
f 85/20/12 72/29/36 93/30/21 86/21/13 
f 86/21/13 93/30/21 94/31/37 87/22/40 
f 87/22/40 94/31/37 95/32/23 88/23/15 
f 88/23/15 95/32/23 96/33/24 89/24/16 
f 89/24/16 96/33/24 97/34/25 90/25/41 
f 90/25/41 97/34/25 91/35/18 83/26/38 
f 91/35/18 97/34/25 96/33/24 95/32/23 94/31/37 93/30/21 72/29/36 92/28/19 
f 98/1/31 99/2/2 100/3/3 
f 98/4/31 100/3/3 101/5/4 
f 98/6/31 101/5/4 102/7/5 
f 98/8/31 102/7/5 103/9/28 
f 98/10/31 103/9/28 104/11/7 
f 98/12/31 104/11/7 105/13/8 
f 98/14/31 105/13/8 106/15/9 
f 98/16/31 106/15/9 99/17/2 
f 99/2/2 107/18/38 108/19/11 100/3/3 
f 100/3/3 108/19/11 109/20/12 101/5/4 
f 101/5/4 109/20/12 110/21/13 102/7/5 
f 102/7/5 110/21/13 111/22/14 103/9/28 
f 103/9/28 111/22/14 112/23/15 104/11/7 
f 104/11/7 112/23/15 113/24/16 105/13/8 
f 105/13/8 113/24/16 114/25/41 106/15/9 
f 106/15/9 114/25/41 107/26/38 99/17/2 
f 107/18/38 115/27/18 116/28/19 108/19/11 
f 108/19/11 116/28/19 117/29/36 109/20/12 
f 109/20/12 117/29/36 118/30/21 110/21/13 
f 110/21/13 118/30/21 119/31/37 111/22/14 
f 111/22/14 119/31/37 120/32/23 112/23/15 
f 112/23/15 120/32/23 121/33/30 113/24/16 
f 113/24/16 121/33/30 122/34/25 114/25/41 
f 114/25/41 122/34/25 115/35/18 107/26/38 
f 115/35/18 122/34/25 121/33/30 120/32/23 119/31/37 118/30/21 117/29/36 116/28/19 
f 123/1/31 124/2/2 125/3/3 
f 123/4/31 125/3/3 126/5/4 
f 123/6/31 126/5/4 127/7/5 
f 123/8/31 127/7/5 128/9/28 
f 123/10/31 128/9/28 129/11/7 
f 123/12/31 129/11/7 130/13/8 
f 123/14/31 130/13/8 131/15/9 
f 123/16/31 131/15/9 124/17/2 
f 124/2/2 132/18/38 133/19/11 125/3/3 
f 125/3/3 133/19/11 134/20/12 126/5/4 
f 126/5/4 134/20/12 135/21/13 127/7/5 
f 127/7/5 135/21/13 136/22/14 128/9/28 
f 128/9/28 136/22/14 137/23/15 129/11/7 
f 129/11/7 137/23/15 138/24/16 130/13/8 
f 130/13/8 138/24/16 139/25/41 131/15/9 
f 131/15/9 139/25/41 132/26/38 124/17/2 
f 132/18/38 140/27/18 141/28/19 133/19/11 
f 133/19/11 141/28/19 142/29/36 134/20/12 
f 134/20/12 142/29/36 143/30/21 135/21/13 
f 135/21/13 143/30/21 144/31/37 136/22/14 
f 136/22/14 144/31/37 145/32/23 137/23/15 
f 137/23/15 145/32/23 146/33/30 138/24/16 
f 138/24/16 146/33/30 147/34/25 139/25/41 
f 139/25/41 147/34/25 140/35/18 132/26/38 
f 140/35/18 147/34/25 146/33/30 145/32/23 144/31/37 143/30/21 142/29/36 141/28/19 
f 148/1/31 149/2/2 150/3/3 
f 148/4/31 150/3/3 151/5/27 
f 148/6/31 151/5/27 152/7/5 
f 148/8/31 152/7/5 153/9/28 
f 148/10/31 153/9/28 154/11/7 
f 148/12/31 154/11/7 155/13/8 
f 148/14/31 155/13/8 156/15/9 
f 148/16/31 156/15/9 149/17/2 
f 149/2/2 157/18/10 158/19/11 150/3/3 
f 150/3/3 158/19/11 159/20/32 151/5/27 
f 151/5/27 159/20/32 160/21/33 152/7/5 
f 152/7/5 160/21/33 161/22/42 153/9/28 
f 153/9/28 161/22/42 162/23/34 154/11/7 
f 154/11/7 162/23/34 163/24/35 155/13/8 
f 155/13/8 163/24/35 164/25/17 156/15/9 
f 156/15/9 164/25/17 157/26/10 149/17/2 
f 157/18/10 165/27/18 166/28/19 158/19/11 
f 158/19/11 166/28/19 167/29/36 159/20/32 
f 159/20/32 167/29/36 168/30/21 160/21/33 
f 160/21/33 168/30/21 169/31/37 161/22/42 
f 161/22/42 169/31/37 170/32/23 162/23/34 
f 162/23/34 170/32/23 171/33/30 163/24/35 
f 163/24/35 171/33/30 172/34/25 164/25/17 
f 164/25/17 172/34/25 165/35/18 157/26/10 
f 165/35/18 172/34/25 171/33/30 170/32/23 169/31/37 168/30/21 167/29/36 166/28/19 
f 173/1/31 174/2/2 175/3/3 
f 173/4/31 175/3/3 176/5/4 
f 173/6/31 176/5/4 177/7/5 
f 173/8/31 177/7/5 178/9/28 
f 173/10/31 178/9/28 179/11/7 
f 173/12/31 179/11/7 180/13/8 
f 173/14/31 180/13/8 181/15/9 
f 173/16/31 181/15/9 174/17/2 
f 174/2/2 182/18/38 183/19/39 175/3/3 
f 175/3/3 183/19/39 184/20/12 176/5/4 
f 176/5/4 184/20/12 185/21/33 177/7/5 
f 177/7/5 185/21/33 186/22/40 178/9/28 
f 178/9/28 186/22/40 187/23/15 179/11/7 
f 179/11/7 187/23/15 188/24/16 180/13/8 
f 180/13/8 188/24/16 189/25/41 181/15/9 
f 181/15/9 189/25/41 182/26/38 174/17/2 
f 182/18/38 190/27/18 191/28/19 183/19/39 
f 183/19/39 191/28/19 192/29/36 184/20/12 
f 184/20/12 192/29/36 193/30/21 185/21/33 
f 185/21/33 193/30/21 194/31/37 186/22/40 
f 186/22/40 194/31/37 195/32/23 187/23/15 
f 187/23/15 195/32/23 196/33/24 188/24/16 
f 188/24/16 196/33/24 197/34/25 189/25/41 
f 189/25/41 197/34/25 190/35/18 182/26/38 
f 190/35/18 197/34/25 196/33/24 195/32/23 194/31/37 193/30/21 192/29/36 191/28/19 
f 198/1/26 199/2/43 200/3/3 
f 198/4/26 200/3/3 201/5/27 
f 198/6/26 201/5/27 202/7/5 
f 198/8/26 202/7/5 203/9/6 
f 198/10/26 203/9/6 204/11/7 
f 198/12/26 204/11/7 205/13/8 
f 198/14/26 205/13/8 206/15/9 
f 198/16/26 206/15/9 199/17/43 
f 199/2/43 207/18/38 208/19/39 200/3/3 
f 200/3/3 208/19/39 209/20/32 201/5/27 
f 201/5/27 209/20/32 210/21/33 202/7/5 
f 202/7/5 210/21/33 211/22/40 203/9/6 
f 203/9/6 211/22/40 212/23/34 204/11/7 
f 204/11/7 212/23/34 213/24/35 205/13/8 
f 205/13/8 213/24/35 214/25/41 206/15/9 
f 206/15/9 214/25/41 207/26/38 199/17/43 
f 207/18/38 215/27/44 216/28/19 208/19/39 
f 208/19/39 216/28/19 217/29/36 209/20/32 
f 209/20/32 217/29/36 218/30/21 210/21/33 
f 210/21/33 218/30/21 219/31/22 211/22/40 
f 211/22/40 219/31/22 220/32/23 212/23/34 
f 212/23/34 220/32/23 221/33/30 213/24/35 
f 213/24/35 221/33/30 222/34/25 214/25/41 
f 214/25/41 222/34/25 215/35/44 207/26/38 
f 215/35/44 222/34/25 221/33/30 220/32/23 219/31/22 218/30/21 217/29/36 216/28/19 
f 223/1/26 224/2/43 225/3/3 
f 223/4/26 225/3/3 226/5/27 
f 223/6/26 226/5/27 227/7/5 
f 223/8/26 227/7/5 228/9/6 
f 223/10/26 228/9/6 229/11/7 
f 223/12/26 229/11/7 230/13/8 
f 223/14/26 230/13/8 231/15/9 
f 223/16/26 231/15/9 224/17/43 
f 224/2/43 232/18/38 233/19/39 225/3/3 
f 225/3/3 233/19/39 234/20/32 226/5/27 
f 226/5/27 234/20/32 235/21/33 227/7/5 
f 227/7/5 235/21/33 236/22/40 228/9/6 
f 228/9/6 236/22/40 237/23/34 229/11/7 
f 229/11/7 237/23/34 238/24/35 230/13/8 
f 230/13/8 238/24/35 239/25/41 231/15/9 
f 231/15/9 239/25/41 232/26/38 224/17/43 
f 232/18/38 240/27/44 241/28/19 233/19/39 
f 233/19/39 241/28/19 242/29/36 234/20/32 
f 234/20/32 242/29/36 243/30/21 235/21/33 
f 235/21/33 243/30/21 244/31/22 236/22/40 
f 236/22/40 244/31/22 245/32/23 237/23/34 
f 237/23/34 245/32/23 246/33/30 238/24/35 
f 238/24/35 246/33/30 247/34/25 239/25/41 
f 239/25/41 247/34/25 240/35/44 232/26/38 
f 240/35/44 247/34/25 246/33/30 245/32/23 244/31/22 243/30/21 242/29/36 241/28/19 
f 248/1/26 249/2/43 250/3/3 
f 248/4/26 250/3/3 251/5/27 
f 248/6/26 251/5/27 252/7/5 
f 248/8/26 252/7/5 253/9/6 
f 248/10/26 253/9/6 254/11/7 
f 248/12/26 254/11/7 255/13/8 
f 248/14/26 255/13/8 256/15/9 
f 248/16/26 256/15/9 249/17/43 
f 249/2/43 257/18/38 258/19/39 250/3/3 
f 250/3/3 258/19/39 259/20/32 251/5/27 
f 251/5/27 259/20/32 260/21/33 252/7/5 
f 252/7/5 260/21/33 261/22/40 253/9/6 
f 253/9/6 261/22/40 262/23/34 254/11/7 
f 254/11/7 262/23/34 263/24/35 255/13/8 
f 255/13/8 263/24/35 264/25/41 256/15/9 
f 256/15/9 264/25/41 257/26/38 249/17/43 
f 257/18/38 265/27/44 266/28/19 258/19/39 
f 258/19/39 266/28/19 267/29/36 259/20/32 
f 259/20/32 267/29/36 268/30/21 260/21/33 
f 260/21/33 268/30/21 269/31/22 261/22/40 
f 261/22/40 269/31/22 270/32/23 262/23/34 
f 262/23/34 270/32/23 271/33/30 263/24/35 
f 263/24/35 271/33/30 272/34/25 264/25/41 
f 264/25/41 272/34/25 265/35/44 257/26/38 
f 265/35/44 272/34/25 271/33/30 270/32/23 269/31/22 268/30/21 267/29/36 266/28/19 
# 187 polygons - 88 triangles

