# 3ds Max Wavefront OBJ Exporter v0.97b - (c)2007 guruware
# File Created: 31.03.2019 17:11:25

mtllib water_cycle_raindrop.mtl

#
# object DROPLET001
#

v  -1.8000 11.5993 10.6572
v  -1.9470 11.0508 10.4332
v  -2.1000 11.0918 10.4988
v  -2.1634 11.1088 10.6572
v  -2.1000 11.0918 10.8156
v  -1.9470 11.0508 10.8812
v  -1.7940 11.0098 10.8156
v  -1.7306 10.9929 10.6572
v  -1.7940 11.0098 10.4988
v  -2.0500 10.6665 10.3372
v  -2.2685 10.7251 10.4309
v  -2.3591 10.7493 10.6572
v  -2.2685 10.7251 10.8835
v  -2.0500 10.6665 10.9772
v  -1.8314 10.6079 10.8835
v  -1.7409 10.5837 10.6572
v  -1.8314 10.6079 10.4309
v  -2.1085 10.4479 10.4309
v  -2.2631 10.4893 10.4972
v  -2.3271 10.5065 10.6572
v  -2.2631 10.4893 10.8172
v  -2.1085 10.4479 10.8835
v  -1.9540 10.4065 10.8172
v  -1.8900 10.3894 10.6572
v  -1.9540 10.4065 10.4972
v  -2.1328 10.3574 10.6572
# 26 vertices

vn 0.2588 0.9659 -0.0000
vn 0.0768 0.2866 -0.9550
vn -0.5755 0.4614 -0.6753
vn -0.8456 0.5338 0.0000
vn -0.5755 0.4614 0.6753
vn 0.0768 0.2866 0.9550
vn 0.7290 0.1118 0.6753
vn 0.9992 0.0394 0.0000
vn 0.7290 0.1118 -0.6753
vn -0.0188 -0.0702 -0.9974
vn -0.7000 0.1124 -0.7052
vn -0.9822 0.1880 0.0000
vn -0.7000 0.1124 0.7052
vn -0.0188 -0.0702 0.9974
vn 0.6624 -0.2527 0.7052
vn 0.9446 -0.3283 0.0000
vn 0.6624 -0.2527 -0.7052
vn -0.1716 -0.6404 -0.7486
vn -0.6829 -0.5034 -0.5294
vn -0.8947 -0.4467 0.0000
vn -0.6829 -0.5034 0.5294
vn -0.1716 -0.6404 0.7486
vn 0.3397 -0.7774 0.5294
vn 0.5515 -0.8342 0.0000
vn 0.3397 -0.7774 -0.5294
vn -0.2588 -0.9659 -0.0000
# 26 vertex normals

vt 0.0000 1.0000 0.0000
vt 0.0000 0.7500 0.0000
vt 0.1250 0.7500 0.0000
vt 0.1250 1.0000 0.0000
vt 0.2500 0.7500 0.0000
vt 0.2500 1.0000 0.0000
vt 0.3750 0.7500 0.0000
vt 0.3750 1.0000 0.0000
vt 0.5000 0.7500 0.0000
vt 0.5000 1.0000 0.0000
vt 0.6250 0.7500 0.0000
vt 0.6250 1.0000 0.0000
vt 0.7500 0.7500 0.0000
vt 0.7500 1.0000 0.0000
vt 0.8750 0.7500 0.0000
vt 0.8750 1.0000 0.0000
vt 1.0000 0.7500 0.0000
vt 0.0000 0.5000 0.0000
vt 0.1250 0.5000 0.0000
vt 0.2500 0.5000 0.0000
vt 0.3750 0.5000 0.0000
vt 0.5000 0.5000 0.0000
vt 0.6250 0.5000 0.0000
vt 0.7500 0.5000 0.0000
vt 0.8750 0.5000 0.0000
vt 1.0000 0.5000 0.0000
vt 0.0000 0.2500 0.0000
vt 0.1250 0.2500 0.0000
vt 0.2500 0.2500 0.0000
vt 0.3750 0.2500 0.0000
vt 0.5000 0.2500 0.0000
vt 0.6250 0.2500 0.0000
vt 0.7500 0.2500 0.0000
vt 0.8750 0.2500 0.0000
vt 1.0000 0.2500 0.0000
vt 0.0000 0.0000 0.0000
vt 0.1250 0.0000 0.0000
vt 0.2500 0.0000 0.0000
vt 0.3750 0.0000 0.0000
vt 0.5000 0.0000 0.0000
vt 0.6250 0.0000 0.0000
vt 0.7500 0.0000 0.0000
vt 0.8750 0.0000 0.0000
# 43 texture coords

o DROPLET001
g DROPLET001
usemtl wire_000000000
s 1
f 1/1/1 2/2/2 3/3/3 
f 1/4/1 3/3/3 4/5/4 
f 1/6/1 4/5/4 5/7/5 
f 1/8/1 5/7/5 6/9/6 
f 1/10/1 6/9/6 7/11/7 
f 1/12/1 7/11/7 8/13/8 
f 1/14/1 8/13/8 9/15/9 
f 1/16/1 9/15/9 2/17/2 
f 2/2/2 10/18/10 11/19/11 3/3/3 
f 3/3/3 11/19/11 12/20/12 4/5/4 
f 4/5/4 12/20/12 13/21/13 5/7/5 
f 5/7/5 13/21/13 14/22/14 6/9/6 
f 6/9/6 14/22/14 15/23/15 7/11/7 
f 7/11/7 15/23/15 16/24/16 8/13/8 
f 8/13/8 16/24/16 17/25/17 9/15/9 
f 9/15/9 17/25/17 10/26/10 2/17/2 
f 10/18/10 18/27/18 19/28/19 11/19/11 
f 11/19/11 19/28/19 20/29/20 12/20/12 
f 12/20/12 20/29/20 21/30/21 13/21/13 
f 13/21/13 21/30/21 22/31/22 14/22/14 
f 14/22/14 22/31/22 23/32/23 15/23/15 
f 15/23/15 23/32/23 24/33/24 16/24/16 
f 16/24/16 24/33/24 25/34/25 17/25/17 
f 17/25/17 25/34/25 18/35/18 10/26/10 
f 26/36/26 19/28/19 18/27/18 
f 26/37/26 20/29/20 19/28/19 
f 26/38/26 21/30/21 20/29/20 
f 26/39/26 22/31/22 21/30/21 
f 26/40/26 23/32/23 22/31/22 
f 26/41/26 24/33/24 23/32/23 
f 26/42/26 25/34/25 24/33/24 
f 26/43/26 18/35/18 25/34/25 
# 16 polygons - 16 triangles

